<?xml version="1.0" standalone="no"?>
<!DOCTYPE svg PUBLIC "-//W3C//DTD SVG 20010904//EN"
 "http://www.w3.org/TR/2001/REC-SVG-20010904/DTD/svg10.dtd">
<svg version="1.0" xmlns="http://www.w3.org/2000/svg"
 width="276.000000pt" height="276.000000pt" viewBox="0 0 276.000000 276.000000"
 preserveAspectRatio="xMidYMid meet">
<metadata>
Created by potrace 1.16, written by Peter Selinger 2001-2019
</metadata>
<g transform="translate(0.000000,276.000000) scale(0.100000,-0.100000)"
fill="#000000" stroke="none">
<path d="M750 2273 c-151 -25 -303 -98 -394 -187 -113 -112 -158 -220 -160
-386 -1 -176 46 -285 177 -406 72 -66 178 -125 361 -199 106 -43 153 -92 139
-144 -9 -35 -54 -51 -139 -51 -124 0 -260 46 -397 133 -32 21 -65 37 -75 37
-40 0 -42 -15 -42 -276 0 -251 0 -253 23 -269 31 -22 165 -61 271 -80 116 -20
366 -20 479 0 90 16 230 62 268 89 21 14 23 13 38 -17 l16 -32 393 -3 c366 -2
399 -1 474 18 96 24 189 73 239 127 101 108 130 168 149 316 16 112 4 217 -32
297 -28 62 -114 157 -170 189 l-47 27 32 19 c43 24 103 90 130 143 12 24 28
54 35 68 9 17 14 64 13 146 0 115 -1 123 -33 187 -66 133 -162 204 -331 242
-72 16 -128 19 -461 19 -316 0 -382 -2 -395 -14 -14 -13 -29 -13 -111 0 -88
13 -387 18 -450 7z m450 -97 c47 -8 104 -19 128 -25 l42 -12 0 -164 c0 -91 -2
-165 -4 -165 -2 0 -25 9 -50 21 -130 57 -333 85 -431 58 -90 -25 -142 -95
-130 -175 11 -79 47 -106 256 -200 165 -73 252 -126 322 -195 75 -76 115 -159
123 -259 20 -246 -125 -437 -386 -509 -98 -28 -325 -46 -349 -28 -10 6 -106
86 -214 177 -193 162 -197 166 -197 203 0 21 3 37 8 35 4 -2 34 -17 67 -34 33
-18 98 -44 145 -60 72 -24 102 -28 200 -28 99 -1 120 2 150 20 50 29 80 78 80
131 0 101 -56 154 -240 228 -152 62 -228 105 -298 170 -104 96 -148 209 -140
362 5 82 10 103 42 168 79 159 244 265 458 294 90 12 305 5 418 -13z m967 -4
c112 -31 193 -84 225 -147 55 -109 58 -121 58 -194 0 -78 -24 -146 -77 -218
-31 -43 -106 -93 -168 -115 -47 -15 -50 -19 -50 -50 0 -31 2 -34 55 -48 82
-22 132 -53 185 -112 83 -95 90 -115 90 -263 0 -145 -8 -174 -74 -270 -50 -74
-60 -83 -126 -120 -84 -47 -165 -65 -320 -72 l-133 -6 -160 133 -160 132 14
52 c18 68 18 208 -1 281 -19 72 -57 143 -107 200 l-38 43 0 155 c0 146 1 155
19 150 10 -2 26 3 35 12 15 15 16 43 14 252 l-3 235 325 -5 c285 -4 334 -7
397 -25z m-1021 -377 c34 -8 80 -22 103 -31 l41 -16 0 -138 0 -138 -92 48
c-51 27 -141 69 -200 95 -124 54 -158 81 -158 125 0 23 7 35 33 50 40 25 180
27 273 5z"/>
<path d="M1726 1909 c-13 -19 -16 -51 -16 -179 0 -209 -3 -204 139 -198 116 5
152 18 187 65 43 58 54 130 33 208 -23 85 -79 115 -225 122 -98 5 -102 5 -118
-18z m219 -84 c63 -31 66 -141 5 -187 -14 -10 -51 -21 -87 -24 l-63 -7 0 117
0 116 56 0 c31 0 71 -7 89 -15z"/>
<path d="M1726 1238 c-24 -33 -23 -369 0 -392 12 -13 39 -16 127 -16 135 0
175 15 233 85 36 44 39 53 42 120 4 79 -5 106 -55 162 -46 51 -87 63 -217 63
-107 0 -116 -1 -130 -22z m267 -91 c65 -69 72 -102 35 -160 -36 -54 -58 -65
-146 -72 l-82 -8 0 132 0 131 85 0 c77 0 88 -2 108 -23z"/>
</g>
</svg>
